<?xml version="1.0" encoding="UTF-8" standalone="no"?>
<svg width="120" height="40" viewBox="0 0 120 40" xmlns="http://www.w3.org/2000/svg">
  <defs>
    <linearGradient id="skyGradient" x1="0%" y1="0%" x2="100%" y2="0%">
      <stop offset="0%" style="stop-color:#6a0dad;stop-opacity:1" />
      <stop offset="50%" style="stop-color:#ff0080;stop-opacity:1" />
      <stop offset="100%" style="stop-color:#00a1e0;stop-opacity:1" />
    </linearGradient>
  </defs>
  <g>
    <path d="M20,10 C20,5 25,5 25,10 L25,30 C25,35 20,35 20,30 Z" fill="url(#skyGradient)"/>
    <path d="M30,15 C30,10 35,10 40,15 L40,30 C40,35 30,35 30,30 Z" fill="url(#skyGradient)"/>
    <path d="M45,10 C45,5 50,5 50,10 L50,15 C50,20 55,20 55,15 L55,10 C55,5 60,5 60,10 L60,15 C60,25 45,25 45,15 Z" fill="url(#skyGradient)"/>
    <path d="M65,10 C65,5 75,5 75,10 L75,30 C75,35 65,35 65,30 Z M70,10 L70,30" stroke="url(#skyGradient)" stroke-width="2" fill="none"/>
    <path d="M80,10 C80,5 90,5 90,10 L90,30 C90,35 80,35 80,30 Z" fill="url(#skyGradient)"/>
    <path d="M95,10 C95,5 105,5 105,10 L105,30 C105,35 95,35 95,30 Z M95,20 L105,20" stroke="url(#skyGradient)" stroke-width="2" fill="none"/>
  </g>
</svg>
